<svg width="60" height="60" viewBox="0 0 60 60" fill="none" xmlns="http://www.w3.org/2000/svg">
<path fill-rule="evenodd" clip-rule="evenodd" d="M39.2751 12.7508C35.8095 9.74201 31.1951 9.66344 27.1457 11.129C21.2659 13.5907 17.1774 18.9634 15.3278 25.4114C15.0164 26.6224 14.7632 27.8341 14.6269 29.0842C14.6269 29.0886 14.6257 29.1081 14.6238 29.1387C14.6085 29.3803 14.5493 30.3168 14.705 30.0217C14.8357 29.8031 14.9122 29.5079 14.9832 29.234C15.0072 29.1413 15.0306 29.0511 15.0553 28.9671C15.9508 25.9387 17.041 23.1837 18.7154 20.5656C22.7261 14.646 29.1705 10.8358 35.9848 12.9458C37.2501 13.3755 38.3794 14.001 39.5086 14.7435C39.5233 14.7543 39.5445 14.7702 39.571 14.7901C39.9303 15.0604 41.2757 16.0723 40.9494 15.017C40.6573 14.1182 39.9175 13.356 39.2751 12.7508ZM32.3253 26.5033C29.7977 27.7971 26.7041 26.7863 25.4304 24.2588C24.1362 21.7314 25.1472 18.638 27.6746 17.3637C30.2022 16.07 33.2957 17.0807 34.5696 19.6083C35.8637 22.1356 34.8526 25.2292 32.3253 26.5033ZM26.3333 45.6449V30.7261C26.7916 30.7669 27.2281 30.7872 27.6864 30.7872C29.8691 30.7872 31.9205 30.2395 33.6667 29.2669V45.6449C33.6667 47.0438 33.3175 48.0775 32.6408 48.7665C31.9643 49.4555 31.0695 49.8002 29.9781 49.8002C28.9086 49.8002 28.0576 49.4555 27.3591 48.746C26.6825 48.0571 26.3333 47.0234 26.3333 45.6449Z" fill="white"/>
</svg>
