<svg width="24px" height="24px" viewBox="0 0 24 24" version="1.1" xmlns="http://www.w3.org/2000/svg" xmlns:xlink="http://www.w3.org/1999/xlink">
    <title>icon-lock-grey-24px</title>
    <defs>
        <path d="M7,9 L7,7 C7,4.23857625 9.23857625,2 12,2 C14.7614237,2 17,4.23857625 17,7 L17,9 L18.5,9 C19.3284271,9 20,9.67157288 20,10.5 L20,20.5 C20,21.3284271 19.3284271,22 18.5,22 L5.5,22 C4.67157288,22 4,21.3284271 4,20.5 L4,10.5 C4,9.67157288 4.67157288,9 5.5,9 L7,9 Z M12,17 C12.8284271,17 13.5,16.3284271 13.5,15.5 C13.5,14.6715729 12.8284271,14 12,14 C11.1715729,14 10.5,14.6715729 10.5,15.5 C10.5,16.3284271 11.1715729,17 12,17 Z M9,9 L15,9 L15,7 C15,5.34314575 13.6568542,4 12,4 C10.3431458,4 9,5.34314575 9,7 L9,9 Z" id="path-1"></path>
    </defs>
    <g id="icon-lock-grey-24px" stroke="none" stroke-width="1" fill="none" fill-rule="evenodd">
        <mask id="mask-2" fill="white">
            <use xlink:href="#path-1"></use>
        </mask>
        <use id="lock" fill="#9C9FA6" xlink:href="#path-1"></use>
    </g>
</svg>